<svg width="23" height="23" viewBox="0 0 23 23" fill="none" xmlns="http://www.w3.org/2000/svg">
<path d="M11.7073 7.29785C10.8914 7.29785 10.0939 7.53978 9.41555 7.99304C8.7372 8.4463 8.20848 9.09054 7.89627 9.84428C7.58406 10.598 7.50237 11.4274 7.66154 12.2276C7.8207 13.0278 8.21357 13.7628 8.79046 14.3397C9.36735 14.9166 10.1024 15.3094 10.9025 15.4686C11.7027 15.6278 12.5321 15.5461 13.2858 15.2339C14.0396 14.9216 14.6838 14.3929 15.1371 13.7146C15.5903 13.0362 15.8323 12.2387 15.8323 11.4229C15.8311 10.3292 15.3962 9.28063 14.6228 8.50729C13.8495 7.73395 12.8009 7.29899 11.7073 7.29785ZM11.7073 14.1729C11.1634 14.1729 10.6317 14.0116 10.1795 13.7094C9.72722 13.4072 9.37475 12.9777 9.16661 12.4752C8.95847 11.9727 8.90401 11.4198 9.01012 10.8864C9.11622 10.3529 9.37814 9.8629 9.76273 9.47831C10.1473 9.09371 10.6373 8.8318 11.1708 8.72569C11.7042 8.61958 12.2572 8.67404 12.7597 8.88218C13.2622 9.09032 13.6916 9.4428 13.9938 9.89503C14.296 10.3473 14.4573 10.879 14.4573 11.4229C14.4573 12.1522 14.1675 12.8517 13.6518 13.3674C13.1361 13.8831 12.4366 14.1729 11.7073 14.1729ZM15.8323 2.48535H7.58228C6.30634 2.48672 5.08305 2.99418 4.18083 3.89641C3.27861 4.79863 2.77114 6.02192 2.76978 7.29785V15.5479C2.77114 16.8238 3.27861 18.0471 4.18083 18.9493C5.08305 19.8515 6.30634 20.359 7.58228 20.3604H15.8323C17.1082 20.359 18.3315 19.8515 19.2337 18.9493C20.1359 18.0471 20.6434 16.8238 20.6448 15.5479V7.29785C20.6434 6.02192 20.1359 4.79863 19.2337 3.89641C18.3315 2.99418 17.1082 2.48672 15.8323 2.48535ZM19.2698 15.5479C19.2698 16.4595 18.9076 17.3339 18.263 17.9785C17.6183 18.6232 16.744 18.9854 15.8323 18.9854H7.58228C6.67059 18.9854 5.79625 18.6232 5.1516 17.9785C4.50694 17.3339 4.14478 16.4595 4.14478 15.5479V7.29785C4.14478 6.38617 4.50694 5.51183 5.1516 4.86717C5.79625 4.22252 6.67059 3.86035 7.58228 3.86035H15.8323C16.744 3.86035 17.6183 4.22252 18.263 4.86717C18.9076 5.51183 19.2698 6.38617 19.2698 7.29785V15.5479ZM17.2073 6.9541C17.2073 7.15806 17.1468 7.35744 17.0335 7.52703C16.9202 7.69662 16.7591 7.8288 16.5707 7.90685C16.3822 7.98491 16.1749 8.00533 15.9748 7.96554C15.7748 7.92575 15.591 7.82753 15.4468 7.68331C15.3026 7.53908 15.2044 7.35533 15.1646 7.15529C15.1248 6.95525 15.1452 6.7479 15.2233 6.55946C15.3013 6.37102 15.4335 6.20996 15.6031 6.09665C15.7727 5.98333 15.9721 5.92285 16.176 5.92285C16.4495 5.92285 16.7118 6.0315 16.9052 6.2249C17.0986 6.41829 17.2073 6.6806 17.2073 6.9541Z" fill="black"/>
</svg>
