<svg width="17" height="17" viewBox="0 0 17 17" fill="none" xmlns="http://www.w3.org/2000/svg">
<path d="M6.90419 11.4479H5.43753V6.6821H6.90419V11.4479ZM6.17086 6.07068C5.64194 6.07068 5.37703 5.82593 5.37703 5.33735C5.37538 5.2393 5.39502 5.14206 5.43459 5.05233C5.47415 4.96261 5.53269 4.88252 5.60619 4.8176C5.75905 4.67499 5.96189 4.59827 6.17086 4.60402C6.69978 4.60402 6.96469 4.84969 6.96469 5.33827C6.96469 5.82685 6.70069 6.07068 6.17086 6.07068ZM12.3437 11.4479H10.8468V8.78952C10.8468 8.09743 10.6011 7.75094 10.1125 7.75094C9.72569 7.75094 9.47178 7.94435 9.34803 8.33118C9.30861 8.3926 9.28753 8.51544 9.28753 8.69785V11.4479H7.79061V8.20927C7.79061 7.47594 7.77961 6.96719 7.76036 6.6821H9.04369L9.13536 7.32285C9.47178 6.81319 9.96036 6.55927 10.6323 6.55927C11.1429 6.55927 11.5544 6.7371 11.8698 7.09369C12.1869 7.45027 12.3446 7.96452 12.3446 8.63735V11.4479H12.3437ZM8.70728 16.6729C4.15786 16.6729 0.457275 12.9723 0.457275 8.42285C0.457275 3.87344 4.15786 0.172852 8.70728 0.172852C13.2567 0.172852 16.9573 3.87344 16.9573 8.42285C16.9573 12.9723 13.2567 16.6729 8.70728 16.6729ZM8.70728 2.00618C5.16986 2.00618 2.29061 4.88544 2.29061 8.42285C2.29061 11.9603 5.16986 14.8395 8.70728 14.8395C12.2447 14.8395 15.1239 11.9603 15.1239 8.42285C15.1239 4.88544 12.2447 2.00618 8.70728 2.00618Z" fill="black"/>
</svg>
